<?xml version="1.0" encoding="utf-8"?>
<!-- Generator: Adobe Illustrator 20.1.0, SVG Export Plug-In . SVG Version: 6.00 Build 0)  -->
<svg version="1.1" id="Livello_1" xmlns="http://www.w3.org/2000/svg" xmlns:xlink="http://www.w3.org/1999/xlink" x="0px" y="0px"
	 viewBox="0 0 15 15" style="enable-background:new 0 0 15 15;" xml:space="preserve">
<style type="text/css">
	.st0{fill:#9D0029;}
</style>
<g>
	<path class="st0" d="M11.7,0.8l2.5,2.5c0.1,0.1,0.1,0.2,0.1,0.3c0,0.1,0,0.2-0.1,0.2l-3.7,3.7l3.7,3.7c0.1,0.1,0.1,0.1,0.1,0.2
		c0,0.1,0,0.2-0.1,0.3l-2.5,2.5c-0.1,0.1-0.2,0.1-0.3,0.1s-0.2,0-0.2-0.1l-3.7-3.7l-3.7,3.7c-0.1,0.1-0.1,0.1-0.2,0.1
		c-0.1,0-0.2,0-0.3-0.1l-2.5-2.5c-0.1-0.1-0.1-0.2-0.1-0.3c0-0.1,0-0.2,0.1-0.2l3.7-3.7L0.8,3.8C0.7,3.7,0.7,3.6,0.7,3.5
		c0-0.1,0-0.2,0.1-0.3l2.5-2.5c0.1-0.1,0.2-0.1,0.3-0.1c0.1,0,0.2,0,0.2,0.1l3.7,3.7l3.7-3.7c0.1-0.1,0.1-0.1,0.2-0.1
		S11.7,0.7,11.7,0.8z"/>
</g>
</svg>
