<?xml version="1.0" encoding="utf-8"?>
<!-- Generator: Adobe Illustrator 20.1.0, SVG Export Plug-In . SVG Version: 6.00 Build 0)  -->
<svg version="1.1" id="Livello_1" xmlns="http://www.w3.org/2000/svg" xmlns:xlink="http://www.w3.org/1999/xlink" x="0px" y="0px"
	 viewBox="0 0 7.3 10.3" style="enable-background:new 0 0 7.3 10.3;" xml:space="preserve">
<g>
	<path d="M0.4,0.1H2c0.1,0,0.2,0,0.2,0.1L7,4.9C7,5,7,5,7,5.1C7,5.2,7,5.2,7,5.3L2.3,10c-0.1,0.1-0.1,0.1-0.2,0.1H0.4
		c-0.1,0-0.2,0-0.2-0.1c0-0.1,0-0.2,0.1-0.2l4.6-4.6L0.3,0.5C0.2,0.4,0.2,0.3,0.2,0.2C0.3,0.2,0.3,0.1,0.4,0.1z"/>
</g>
</svg>
