<?xml version="1.0" encoding="utf-8"?>
<!-- Generator: Adobe Illustrator 20.1.0, SVG Export Plug-In . SVG Version: 6.00 Build 0)  -->
<svg version="1.1" id="Livello_1" xmlns="http://www.w3.org/2000/svg" xmlns:xlink="http://www.w3.org/1999/xlink" x="0px" y="0px"
	 viewBox="0 0 155 35.4" style="enable-background:new 0 0 155 35.4;" xml:space="preserve">
<style type="text/css">
	.st0{fill:#9D0029;}
	.st1{fill:#231F20;}
	.st2{fill:none;stroke:#231F20;stroke-width:0.882;stroke-miterlimit:10;}
</style>
<g>
	<path class="st0" d="M20.1,17c0,1.4-0.2,2.8-0.7,4c-0.5,1.2-1.2,2.2-2,3.1c-0.8,0.9-1.8,1.5-3,2s-2.4,0.7-3.7,0.7
		c-1.3,0-2.5-0.2-3.7-0.7s-2.1-1.2-3-2s-1.5-1.9-2-3.1S1.2,18.4,1.2,17V0.6H6v8.6c0.3-0.3,0.6-0.6,0.9-0.9s0.8-0.5,1.2-0.6
		c0.4-0.2,0.9-0.3,1.3-0.4s0.9-0.1,1.3-0.1c1.3,0,2.5,0.2,3.7,0.7s2.1,1.2,3,2c0.8,0.9,1.5,1.9,2,3.1S20.1,15.6,20.1,17z M15.4,17
		c0-0.7-0.1-1.4-0.4-2s-0.6-1.1-1-1.6c-0.4-0.4-0.9-0.8-1.5-1.1S11.3,12,10.7,12c-0.6,0-1.2,0.1-1.8,0.4c-0.6,0.3-1.1,0.7-1.5,1.1
		c-0.4,0.5-0.8,1-1,1.6C6.1,15.7,6,16.4,6,17c0,0.7,0.1,1.4,0.4,2c0.2,0.6,0.6,1.1,1,1.6c0.4,0.4,0.9,0.8,1.5,1.1S10,22,10.7,22
		c0.6,0,1.2-0.1,1.8-0.4s1.1-0.6,1.5-1.1c0.4-0.4,0.8-1,1-1.6C15.2,18.4,15.4,17.7,15.4,17z"/>
	<path class="st0" d="M28.6,3.7c0,0.4-0.1,0.8-0.2,1.2s-0.4,0.7-0.7,1c-0.3,0.3-0.6,0.5-1,0.7c-0.4,0.2-0.8,0.2-1.2,0.2
		c-0.4,0-0.8-0.1-1.2-0.2c-0.4-0.2-0.7-0.4-1-0.7c-0.3-0.3-0.5-0.6-0.7-1s-0.2-0.8-0.2-1.2c0-0.4,0.1-0.8,0.2-1.2s0.4-0.7,0.7-1
		c0.3-0.3,0.6-0.5,1-0.7s0.8-0.2,1.2-0.2c0.4,0,0.8,0.1,1.2,0.2c0.4,0.2,0.7,0.4,1,0.7s0.5,0.6,0.7,1S28.6,3.3,28.6,3.7z M27.8,26.4
		H23V8.7h4.7V26.4z"/>
	<path class="st0" d="M36.5,26.4h-4.7V0.6h4.7v16.3l7-8.9h5.4l-6.1,7.7l6.1,10.7h-5.4l-3.7-6.7L36.5,24V26.4z"/>
	<path class="st0" d="M57.9,21.9c0.2,0.1,0.4,0.1,0.6,0.1c0.2,0,0.4,0,0.6,0c0.5,0,0.9-0.1,1.3-0.2c0.4-0.1,0.8-0.3,1.2-0.5
		s0.7-0.5,1-0.9s0.5-0.7,0.7-1.1l3.4,3.5c-0.4,0.6-0.9,1.2-1.5,1.7c-0.6,0.5-1.2,0.9-1.8,1.3c-0.7,0.3-1.4,0.6-2.1,0.8
		c-0.7,0.2-1.5,0.3-2.2,0.3c-1.3,0-2.5-0.2-3.7-0.7c-1.1-0.5-2.1-1.2-3-2c-0.9-0.9-1.5-1.9-2-3.1s-0.7-2.5-0.7-3.9
		c0-1.5,0.2-2.8,0.7-4s1.2-2.2,2-3.1c0.9-0.8,1.9-1.5,3-2c1.1-0.5,2.4-0.7,3.7-0.7c0.8,0,1.5,0.1,2.3,0.3s1.4,0.4,2.1,0.8
		c0.7,0.3,1.3,0.8,1.9,1.3s1.1,1.1,1.5,1.7L57.9,21.9z M60.3,12.2c-0.2-0.1-0.4-0.1-0.6-0.2c-0.2,0-0.4,0-0.7,0
		c-0.6,0-1.2,0.1-1.8,0.4c-0.6,0.2-1.1,0.6-1.5,1c-0.4,0.4-0.7,1-1,1.6c-0.2,0.6-0.4,1.3-0.4,2.1c0,0.2,0,0.4,0,0.6s0,0.4,0.1,0.7
		s0.1,0.4,0.1,0.6c0.1,0.2,0.1,0.4,0.2,0.6L60.3,12.2z"/>
	<path class="st1" d="M82.8,26.4c-0.1-0.8-0.2-1.4-0.3-1.8c-0.1-0.4-0.1-0.8-0.1-1.3V23c-0.7,1.1-1.7,2-3,2.7
		c-1.3,0.7-2.8,1.1-4.5,1.1c-1.7,0-3.1-0.5-4.1-1.4s-1.5-2.2-1.5-3.7c0-1.7,0.8-3,2.3-4.1c1.5-1.1,3.6-1.6,6.1-1.6h4.6v-2.7
		c0-1.6-0.5-2.8-1.5-3.6c-1-0.9-2.4-1.3-4.2-1.3c-1.2,0-2.3,0.2-3.3,0.5s-1.9,0.8-2.6,1.4l0,3h-0.9l0-3.5C70.8,9,71.8,8.4,73,8
		c1.2-0.4,2.4-0.6,3.7-0.6c2,0,3.6,0.5,4.8,1.5c1.2,1,1.8,2.5,1.8,4.4v9.3c0,0.5,0,1,0.1,1.4c0,0.5,0.1,0.9,0.2,1.4h2.2v0.9H82.8z
		 M75,25.8c1.8,0,3.3-0.4,4.6-1.2c1.3-0.8,2.3-1.9,2.9-3.3v-4.4h-4.6c-2.3,0-4.1,0.4-5.5,1.3c-1.4,0.9-2.1,2-2.1,3.5
		c0,1.2,0.4,2.1,1.3,2.9C72.4,25.4,73.6,25.8,75,25.8z"/>
	<path class="st1" d="M93.5,8.7H91L94.5,21l1,3.8l0.1,0l1.2-3.8L101,7.7h0.9l4.2,13.2l1.2,3.8l0.1,0l1-3.8L112,8.7h-2.5V7.7h5.6v0.9
		H113l-5.2,17.7H107l-4.6-14l-0.8-3.2h-0.1l-0.9,3.2l-4.5,14h-0.9L89.9,8.7H88V7.7h5.5V8.7z"/>
	<path class="st1" d="M131.4,26.4c-0.1-0.8-0.2-1.4-0.3-1.8c-0.1-0.4-0.1-0.8-0.1-1.3V23c-0.7,1.1-1.7,2-3,2.7
		c-1.3,0.7-2.8,1.1-4.5,1.1c-1.7,0-3.1-0.5-4.1-1.4c-1-0.9-1.5-2.2-1.5-3.7c0-1.7,0.8-3,2.3-4.1s3.6-1.6,6.1-1.6h4.6v-2.7
		c0-1.6-0.5-2.8-1.5-3.6c-1-0.9-2.4-1.3-4.2-1.3c-1.2,0-2.3,0.2-3.3,0.5c-1,0.3-1.9,0.8-2.6,1.4l0,3h-0.9l0-3.5
		c0.9-0.7,1.9-1.2,3.1-1.6c1.2-0.4,2.4-0.6,3.7-0.6c2,0,3.6,0.5,4.8,1.5s1.8,2.5,1.8,4.4v9.3c0,0.5,0,1,0.1,1.4s0.1,0.9,0.2,1.4h2.2
		v0.9H131.4z M123.5,25.8c1.8,0,3.3-0.4,4.6-1.2c1.3-0.8,2.3-1.9,2.9-3.3v-4.4h-4.6c-2.3,0-4.1,0.4-5.5,1.3c-1.4,0.9-2.1,2-2.1,3.5
		c0,1.2,0.4,2.1,1.3,2.9C121,25.4,122.1,25.8,123.5,25.8z"/>
	<g>
		<line class="st2" x1="136.5" y1="8.1" x2="141.9" y2="8.1"/>
		<line class="st2" x1="149.8" y1="8.1" x2="155.2" y2="8.1"/>
		<path class="st2" d="M139.7,30.1c1,2.5,3.4,4.2,6.1,4.2c3.7,0,6.6-3.1,6.6-6.9V16.1"/>
		<path class="st2" d="M145.9,26.4c3.7,0,6.6-2.4,6.6-6.2v-12"/>
		<path class="st2" d="M139.2,8.1v12c0,3.8,3,6.2,6.6,6.2"/>
	</g>
</g>
<g>
</g>
<g>
</g>
<g>
</g>
<g>
</g>
<g>
</g>
<g>
</g>
<g>
</g>
<g>
</g>
<g>
</g>
<g>
</g>
<g>
</g>
<g>
</g>
<g>
</g>
<g>
</g>
<g>
</g>
</svg>
