<?xml version="1.0" encoding="utf-8"?>
<!-- Generator: Adobe Illustrator 20.1.0, SVG Export Plug-In . SVG Version: 6.00 Build 0)  -->
<svg version="1.1" id="Livello_1" xmlns="http://www.w3.org/2000/svg" xmlns:xlink="http://www.w3.org/1999/xlink" x="0px" y="0px"
	 viewBox="0 0 154.6 35.8" style="enable-background:new 0 0 154.6 35.8;" xml:space="preserve">
<style type="text/css">
	.st0{fill:#FFFFFF;}
	.st1{fill:none;stroke:#FFFFFF;stroke-width:0.882;stroke-miterlimit:10;}
</style>
<g>
	<path class="st0" d="M19.1,17.2c0,1.4-0.2,2.8-0.7,4c-0.5,1.2-1.2,2.2-2,3.1c-0.8,0.9-1.8,1.5-3,2S11,27,9.7,27
		c-1.3,0-2.5-0.2-3.7-0.7s-2.1-1.2-3-2s-1.5-1.9-2-3.1s-0.7-2.5-0.7-3.9V0.8H5v8.6c0.3-0.3,0.6-0.6,0.9-0.9S6.6,8.1,7.1,8
		c0.4-0.2,0.9-0.3,1.3-0.4c0.4-0.1,0.9-0.1,1.3-0.1c1.3,0,2.5,0.2,3.7,0.7s2.1,1.2,3,2c0.8,0.9,1.5,1.9,2,3.1S19.1,15.8,19.1,17.2z
		 M14.4,17.2c0-0.7-0.1-1.4-0.4-2s-0.6-1.1-1-1.6c-0.4-0.4-0.9-0.8-1.5-1.1s-1.2-0.4-1.8-0.4c-0.6,0-1.2,0.1-1.8,0.4
		c-0.6,0.3-1.1,0.7-1.5,1.1c-0.4,0.5-0.8,1-1,1.6C5.1,16,5,16.6,5,17.2c0,0.7,0.1,1.4,0.4,2c0.2,0.6,0.6,1.1,1,1.6
		c0.4,0.4,0.9,0.8,1.5,1.1s1.2,0.4,1.8,0.4c0.6,0,1.2-0.1,1.8-0.4s1.1-0.6,1.5-1.1c0.4-0.4,0.8-1,1-1.6C14.2,18.6,14.4,18,14.4,17.2
		z"/>
	<path class="st0" d="M27.6,4c0,0.4-0.1,0.8-0.2,1.2s-0.4,0.7-0.7,1c-0.3,0.3-0.6,0.5-1,0.7c-0.4,0.2-0.8,0.2-1.2,0.2
		c-0.4,0-0.8-0.1-1.2-0.2c-0.4-0.2-0.7-0.4-1-0.7c-0.3-0.3-0.5-0.6-0.7-1S21.3,4.4,21.3,4c0-0.4,0.1-0.8,0.2-1.2s0.4-0.7,0.7-1
		c0.3-0.3,0.6-0.5,1-0.7s0.8-0.2,1.2-0.2c0.4,0,0.8,0.1,1.2,0.2c0.4,0.2,0.7,0.4,1,0.7s0.5,0.6,0.7,1S27.6,3.6,27.6,4z M26.8,26.6
		H22V9h4.7V26.6z"/>
	<path class="st0" d="M35.5,26.6h-4.7V0.8h4.7v16.3l7-8.9h5.4l-6.1,7.7l6.1,10.7h-5.4l-3.7-6.7l-3.3,4.3V26.6z"/>
	<path class="st0" d="M56.9,22.1c0.2,0.1,0.4,0.1,0.6,0.1c0.2,0,0.4,0,0.6,0c0.5,0,0.9-0.1,1.3-0.2c0.4-0.1,0.8-0.3,1.2-0.5
		s0.7-0.5,1-0.9s0.5-0.7,0.7-1.1l3.4,3.5c-0.4,0.6-0.9,1.2-1.5,1.7c-0.6,0.5-1.2,0.9-1.8,1.3c-0.7,0.3-1.4,0.6-2.1,0.8
		C59.5,26.9,58.7,27,58,27c-1.3,0-2.5-0.2-3.7-0.7c-1.1-0.5-2.1-1.2-3-2c-0.9-0.9-1.5-1.9-2-3.1s-0.7-2.5-0.7-3.9
		c0-1.5,0.2-2.8,0.7-4s1.2-2.2,2-3.1c0.9-0.8,1.9-1.5,3-2c1.1-0.5,2.4-0.7,3.7-0.7c0.8,0,1.5,0.1,2.3,0.3s1.4,0.4,2.1,0.8
		c0.7,0.3,1.3,0.8,1.9,1.3c0.6,0.5,1.1,1.1,1.5,1.7L56.9,22.1z M59.3,12.4c-0.2-0.1-0.4-0.1-0.6-0.2c-0.2,0-0.4,0-0.7,0
		c-0.6,0-1.2,0.1-1.8,0.4c-0.6,0.2-1.1,0.6-1.5,1c-0.4,0.4-0.7,1-1,1.6c-0.2,0.6-0.4,1.3-0.4,2.1c0,0.2,0,0.4,0,0.6s0,0.4,0.1,0.7
		s0.1,0.4,0.1,0.6c0.1,0.2,0.1,0.4,0.2,0.6L59.3,12.4z"/>
	<path class="st0" d="M81.8,26.6c-0.1-0.8-0.2-1.4-0.3-1.8c-0.1-0.4-0.1-0.8-0.1-1.3v-0.3c-0.7,1.1-1.7,2-3,2.7
		C77.2,26.6,75.7,27,74,27c-1.7,0-3.1-0.5-4.1-1.4s-1.5-2.2-1.5-3.7c0-1.7,0.8-3,2.3-4.1c1.5-1.1,3.6-1.6,6.1-1.6h4.6v-2.7
		c0-1.6-0.5-2.8-1.5-3.6c-1-0.9-2.4-1.3-4.2-1.3c-1.2,0-2.3,0.2-3.3,0.5s-1.9,0.8-2.6,1.4l0,3h-0.9l0-3.5c0.9-0.7,1.9-1.2,3.1-1.6
		c1.2-0.4,2.4-0.6,3.7-0.6c2,0,3.6,0.5,4.8,1.5c1.2,1,1.8,2.5,1.8,4.4v9.3c0,0.5,0,1,0.1,1.4c0,0.5,0.1,0.9,0.2,1.4h2.2v0.9H81.8z
		 M74,26.1c1.8,0,3.3-0.4,4.6-1.2c1.3-0.8,2.3-1.9,2.9-3.3v-4.4h-4.6c-2.3,0-4.1,0.4-5.5,1.3c-1.4,0.9-2.1,2-2.1,3.5
		c0,1.2,0.4,2.1,1.3,2.9C71.4,25.7,72.6,26.1,74,26.1z"/>
	<path class="st0" d="M92.5,8.9H90l3.5,12.3l1,3.8l0.1,0l1.2-3.8L100,8h0.9l4.2,13.2l1.2,3.8l0.1,0l1-3.8L111,8.9h-2.5V8h5.6v0.9
		H112l-5.2,17.7H106l-4.6-14l-0.8-3.2h-0.1l-0.9,3.2l-4.5,14h-0.9L88.9,8.9H87V8h5.5V8.9z"/>
	<path class="st0" d="M130.4,26.6c-0.1-0.8-0.2-1.4-0.3-1.8c-0.1-0.4-0.1-0.8-0.1-1.3v-0.3c-0.7,1.1-1.7,2-3,2.7
		c-1.3,0.7-2.8,1.1-4.5,1.1c-1.7,0-3.1-0.5-4.1-1.4c-1-0.9-1.5-2.2-1.5-3.7c0-1.7,0.8-3,2.3-4.1s3.6-1.6,6.1-1.6h4.6v-2.7
		c0-1.6-0.5-2.8-1.5-3.6c-1-0.9-2.4-1.3-4.2-1.3c-1.2,0-2.3,0.2-3.3,0.5c-1,0.3-1.9,0.8-2.6,1.4l0,3h-0.9l0-3.5
		c0.9-0.7,1.9-1.2,3.1-1.6c1.2-0.4,2.4-0.6,3.7-0.6c2,0,3.6,0.5,4.8,1.5c1.2,1,1.8,2.5,1.8,4.4v9.3c0,0.5,0,1,0.1,1.4
		s0.1,0.9,0.2,1.4h2.2v0.9H130.4z M122.5,26.1c1.8,0,3.3-0.4,4.6-1.2c1.3-0.8,2.3-1.9,2.9-3.3v-4.4h-4.6c-2.3,0-4.1,0.4-5.5,1.3
		c-1.4,0.9-2.1,2-2.1,3.5c0,1.2,0.4,2.1,1.3,2.9C120,25.7,121.1,26.1,122.5,26.1z"/>
	<g>
		<line class="st1" x1="135.5" y1="8.4" x2="140.9" y2="8.4"/>
		<line class="st1" x1="148.8" y1="8.4" x2="154.2" y2="8.4"/>
		<path class="st1" d="M138.7,30.3c1,2.5,3.4,4.2,6.1,4.2c3.7,0,6.6-3.1,6.6-6.9V16.3"/>
		<path class="st1" d="M144.9,26.6c3.7,0,6.6-2.4,6.6-6.2v-12"/>
		<path class="st1" d="M138.2,8.4v12c0,3.8,3,6.2,6.6,6.2"/>
	</g>
</g>
</svg>
