<?xml version="1.0" encoding="utf-8"?>
<!-- Generator: Adobe Illustrator 20.1.0, SVG Export Plug-In . SVG Version: 6.00 Build 0)  -->
<svg version="1.1" id="Livello_1" xmlns="http://www.w3.org/2000/svg" xmlns:xlink="http://www.w3.org/1999/xlink" x="0px" y="0px"
	 viewBox="0 0 15 15" style="enable-background:new 0 0 15 15;" xml:space="preserve">
<style type="text/css">
	.st0{fill:#9D0029;}
</style>
<g>
	<path class="st0" d="M5.7,5.4L7.3,1c0.1-0.2,0.1-0.2,0.2-0.2c0.1,0,0.2,0.1,0.2,0.2l1.6,4.4h5.2c0.2,0,0.3,0,0.3,0.1
		c0,0.1,0,0.2-0.2,0.3l-4.2,3.1l1.6,5c0.1,0.2,0.1,0.3,0,0.3c-0.1,0-0.2,0-0.3-0.1l-4.3-3l-4.2,3.1C3.1,14.2,3,14.2,3,14.2
		c-0.1,0-0.1-0.2,0-0.3l1.6-5L0.3,5.8C0.1,5.7,0.1,5.6,0.1,5.5s0.1-0.1,0.3-0.1H5.7z"/>
</g>
</svg>
