<?xml version="1.0" encoding="utf-8"?>
<!-- Generator: Adobe Illustrator 20.1.0, SVG Export Plug-In . SVG Version: 6.00 Build 0)  -->
<svg version="1.1" id="Livello_1" xmlns="http://www.w3.org/2000/svg" xmlns:xlink="http://www.w3.org/1999/xlink" x="0px" y="0px"
	 viewBox="0 0 26 26" style="enable-background:new 0 0 26 26;" xml:space="preserve">
<style type="text/css">
	.st0{fill:#9D0029;}
</style>
<g>
	<path class="st0" d="M6.7,1.1c1.3-0.5,2.6-0.8,4-0.8s2.7,0.3,4,0.8c1.3,0.5,2.4,1.3,3.3,2.2c0.9,0.9,1.7,2,2.2,3.3
		c0.5,1.3,0.8,2.6,0.8,4l0,0l0,0.1c0,2-0.5,3.8-1.6,5.5l5.8,5.8c0.3,0.4,0.5,0.7,0.5,0.9c0,0.3-0.2,0.6-0.5,0.9L24,25.1
		c-0.4,0.3-0.7,0.4-1,0.4c-0.3,0-0.6-0.1-0.8-0.4l-5.8-5.8c-1.7,1.1-3.5,1.6-5.5,1.6l-0.1,0l0,0c-1.4,0-2.7-0.3-4-0.8
		c-1.3-0.5-2.4-1.3-3.3-2.2c-0.9-0.9-1.7-2-2.2-3.3c-0.5-1.3-0.8-2.6-0.8-4s0.3-2.7,0.8-4c0.5-1.3,1.3-2.4,2.2-3.3
		C4.4,2.4,5.5,1.7,6.7,1.1z M14.2,4.8c-1-0.6-2.2-0.9-3.4-0.9c-1.2,0-2.4,0.3-3.4,0.9S5.5,6.2,4.9,7.2C4.3,8.3,4,9.4,4,10.7
		c0,1.2,0.3,2.4,0.9,3.4s1.4,1.9,2.5,2.5s2.2,0.9,3.4,0.9c1.2,0,2.4-0.3,3.4-0.9c1-0.6,1.9-1.4,2.5-2.5c0.6-1,0.9-2.2,0.9-3.4
		c0-1.2-0.3-2.4-0.9-3.4C16,6.2,15.2,5.4,14.2,4.8z"/>
</g>
</svg>
